# xmcd CD database file
#
# Track frame offsets:
#	150
#	15080
#	30450
#	51310
#	61365
#	80140
#	98257
#	111942
#	132085
#	145092
#	154975
#	170990
#	190765
#	202927
#	218465
#	236037
#	254652
#	275655
#	293687
#	318777
#
# Disc length: 4449 seconds
#
# Revision: 2
# Processed by: cddbd v1.5.2PL0 Copyright (c) Steve Scherf et al.
# Submitted via: CDex 1.51
#
DISCID=18115f14
DTITLE=The Flashback Band - Pop into Christmas
DYEAR=2002
DGENRE=Christmas
TTITLE0=Do they know it's Christmas
TTITLE1=Happy Xmas
TTITLE2=Last Christmas
TTITLE3=Blue Christmas
TTITLE4=Driving Home for Christmas
TTITLE5=All I Want for Christmas is You
TTITLE6=Stop the Cavalry
TTITLE7=Happy New Year
TTITLE8=Please Come Home for Christmas
TTITLE9=Winter Wonderland
TTITLE10=Lonely This Christmas
TTITLE11=Saviour's Day
TTITLE12=Rockin' Around the Christmas Tree
TTITLE13=Merry Christmas Everyone
TTITLE14=A Winters Tale
TTITLE15=When a Child is Born
TTITLE16=Mary's Boy Child
TTITLE17=Another Rock'N' Roll Christmas
TTITLE18=A Spaceman Came Travelling
TTITLE19=Merry Christmas Everybody
EXTD=YEAR: 2002
EXTT0=
EXTT1=
EXTT2=
EXTT3=
EXTT4=
EXTT5=
EXTT6=
EXTT7=
EXTT8=
EXTT9=
EXTT10=
EXTT11=
EXTT12=
EXTT13=
EXTT14=
EXTT15=
EXTT16=
EXTT17=
EXTT18=
EXTT19=
PLAYORDER=
